<?xml version="1.0" encoding="UTF-8"?>
<svg width="755px" height="139px" viewBox="0 0 755 139" version="1.1" xmlns="http://www.w3.org/2000/svg" xmlns:xlink="http://www.w3.org/1999/xlink">
    <title>StoneLocals</title>
    <g id="Design" stroke="none" stroke-width="1" fill="none" fill-rule="evenodd">
        <g id="F20-StoneLocals-FilmDetail" transform="translate(-348.000000, -376.000000)" fill="#F15F63" fill-rule="nonzero">
            <g id="16:9-2560x1440">
                <path d="M387.6,514.6 C396.4,514.6 405,512.2 412.2,507.6 C423.6,500.4 428.8,488.6 428.8,470.8 C428.8,458.4 425.4,449.2 418,441.8 C412.4,436.2 406.4,432.8 392.4,427 C381,422.4 377.2,418 377.2,410.2 C377.2,403 381.6,397.8 387.8,397.8 C393.8,397.8 398,402.8 398,410 C398,413.4 397.4,416.2 395.8,420.8 L420,420.8 C422,415.2 422.6,411.8 422.6,406.8 C422.6,388.2 409.6,376.8 388,376.8 C375.2,376.8 366.4,380.2 359,387.6 C352.4,394.6 349,403.4 349,413.8 C349,432.6 357.6,444 380.6,455.4 C395.4,463 399.2,467.2 399.2,476.4 C399.2,485 394,490.8 386.4,490.8 C378.6,490.8 374.2,485 374.2,474.8 C374.2,471.2 374.6,469 376,465.2 L351.6,465.2 C349.6,469.8 348.8,473.2 348.8,478.8 C348.8,490 352.4,498.8 359.4,504.8 C366.6,511 377,514.6 387.6,514.6 Z M458,514.6 C466.2,514.6 473.8,512.8 479.8,509.4 L479.8,489.8 C476,491.6 473.2,492.2 469.6,492.2 C461.68,492.2 460.03264,489.06368 460.000485,474.640528 L460,429.8 L477.4,429.8 L477.4,414 L460,414 L460,389 L433.6,389 L433.6,414 L420.6,414 L420.6,429.8 L433.6,429.8 L433.6,486 C433.6,497.4 435.2,503.6 439.2,508 C443,512.2 449.8,514.6 458,514.6 Z M511,514.6 C535.6,514.6 546.4,500.2 546.4,467.4 C546.4,430.8 534.4,412.6 510,412.6 C499,412.6 490.8,415.8 484.8,422.4 C477.6,430.4 472.8,447.6 472.8,464.8 C472.8,480.4 476,495 481.2,502.2 C487,510.2 497.6,514.6 511,514.6 Z M510,495.4 C502.8,495.4 501.4,489.6 501.4,462.4 C501.4,438.8 503.4,431.4 509.8,431.4 C516,431.4 518,439.2 518,465.4 C518,481 517.6,487.2 516.4,490.8 C515.4,493.6 512.8,495.4 510,495.4 Z M574.6,512 L574.6,457.2 C574.6,450 575.2,445.4 576.8,441.8 C578.2,438.8 581.6,436.2 584.2,436.2 C585.4,436.2 586.8,436.8 587.8,437.8 C590.6,440.4 591.2,444 591.2,455.4 L591.2,512 L618.6,512 L618.6,444 C618.6,432.8 617,426.2 613,420.6 C609,415 602.6,411.8 595.8,411.8 C586.6,411.8 580.6,416.4 574.6,428 L574.6,414 L547,414 L547,512 L574.6,512 Z M655.2,514.6 C676.4,514.6 689.4,504.8 689.4,488.4 C689.4,486.8 689.4,484.4 689.2,481.8 C689,481 689,479.4 688.8,477.4 L666.8,477.4 C667,480.2 667,481.8 667,483.2 C667,490.4 663.8,494.2 657.6,494.2 C652.4,494.2 649.2,491.6 647.6,486.2 C646.8,483.4 646.8,482.4 646.8,469.6 L688.8,469.6 C689,466.8 689,465 689,463.2 C689,447.2 685.6,432 680.4,424.2 C675.4,416.8 665.6,412.2 655.2,412.2 C648,412.2 640.2,414.6 634.4,418.8 C623.6,426.8 618.6,441.2 618.6,465.4 C618.6,484 621.2,497 626.4,503.4 C632.2,510.6 642.4,514.6 655.2,514.6 Z M663.4,454.8 L646.8,454.8 C647,446.2 647.4,441.6 647.8,438.8 C648.6,432.4 650.8,429.6 654.6,429.6 C658,429.6 660.2,432 661.4,437.2 C662.2,440 662.2,440 663.4,454.8 Z M793.2,512 L793.2,486 L757.4,486 L757.4,378.6 L726.8,378.6 L726.8,512 L793.2,512 Z M826.6,514.6 C851.2,514.6 862,500.2 862,467.4 C862,430.8 850,412.6 825.6,412.6 C814.6,412.6 806.4,415.8 800.4,422.4 C793.2,430.4 788.4,447.6 788.4,464.8 C788.4,480.4 791.6,495 796.8,502.2 C802.6,510.2 813.2,514.6 826.6,514.6 Z M825.6,495.4 C818.472,495.4 817.02858,489.71542 817.000424,463.209596 L817,462.4 C817,438.8 819,431.4 825.4,431.4 C831.6,431.4 833.6,439.2 833.6,465.4 C833.6,481 833.2,487.2 832,490.8 C831,493.6 828.4,495.4 825.6,495.4 Z M896.6,514.6 C907.8,514.6 916.2,511.6 922.4,505.4 C927.8,500 930,493.6 930,483 C930,477.8 929.6,474.8 928.2,469.2 L906,468.2 C906.8,473 907,475.6 907,478.8 C907,489.4 903.8,494.8 897.6,494.8 C889.68,494.8 887.05254,487.74328 887.000783,466.255568 L887,465.6 C887,439.4 889.4,430.4 896.2,430.4 C901.8,430.4 904.4,435 904.4,445 C904.4,449.2 904.2,451.2 903.6,455.4 L927.4,453.8 C928,448.8 928.2,446.2 928.2,443 C928.2,423.8 916.2,412 896.4,412 C886.4,412 877.6,415.2 871.8,421.2 C863.2,429.8 859.2,443.8 859.2,466 C859.2,486.4 862.2,497.2 870.2,505 C876.6,511.4 885.4,514.6 896.6,514.6 Z M949.8,514.6 C959.8,514.6 966.2,510.4 971.2,500.6 C974,505.8 974.2,506.4 975.6,508 C978.6,512.2 984,514.4 990.6,514.4 C996.6,514.4 1001.2,513.2 1006.8,510.2 L1006.8,492.8 C1005.4,493 1004.6,493.2 1004,493.2 C999.4,493.2 997.8,490.8 997.8,484.2 L997.8,442.2 C997.8,428.8 997.6,427.4 995,423.6 C990.4,416.6 978,412.4 962.4,412.4 C941.6,412.4 928.8,420.6 928.8,434.2 C928.8,437.8 929,440 930.4,446.8 L954,446.8 C953.2,443.6 952.8,441.6 952.8,439 C952.8,432.2 956.4,428 962,428 C967.6,428 970.6,432.2 970.6,440 C970.6,448.6 967.8,451 954.4,454 C944,456.2 938.6,458.2 934.8,461.4 C929.4,466 926,474.8 926,485 C926,502.6 935.6,514.6 949.8,514.6 Z M960.8,494.4 C956.4,494.4 953.8,490.6 953.8,484.2 C953.8,479 954.6,474.4 956,472 C957.8,469 959,468 965.4,465.2 C967.8,464.2 969.2,463.6 971.2,462.2 L971.2,477.4 C971.2,486.8 966.6,494.4 960.8,494.4 Z M1032,512 L1032,378.6 L1004,378.6 L1004,512 L1032,512 Z M1066.6,514.6 C1090.2,514.6 1102.6,503.2 1102.6,481.4 C1102.6,464.4 1096,457.2 1074.8,451.4 C1066.4,449 1065,448.6 1062.4,446.8 C1059.8,445.2 1058.2,442.2 1058.2,438.8 C1058.2,433.4 1061.6,429.8 1066.8,429.8 C1072.4,429.8 1075.2,432.8 1075.2,438.8 C1075.2,440.4 1075,442 1074.6,445 L1095.8,445 C1096.8,440.8 1097.2,438.6 1097.2,435.4 C1097.2,420.2 1086,411.6 1066.6,411.6 C1046,411.6 1032.6,423.8 1032.6,442.2 C1032.6,457.2 1040.4,466.8 1056.6,471.6 C1068.2,475 1071.6,476.8 1073.4,480 C1074.6,482 1075.4,485 1075.4,487.4 C1075.4,492.6 1071.2,496.6 1065.8,496.6 C1059.6,496.6 1055.8,492.2 1055.8,485 C1055.8,483.2 1056,482 1056.6,478.8 L1034.8,478.8 C1033.6,483.4 1033.4,485.6 1033.4,489.4 C1033.4,497.6 1035.4,502.6 1040.4,506.8 C1046.8,512 1055.8,514.6 1066.6,514.6 Z" id="StoneLocals"></path>
            </g>
        </g>
    </g>
</svg>